<svg xmlns="http://www.w3.org/2000/svg" viewBox="0 0 414.46 414.46"><defs><style>.cls-1{fill:#f87b38;}</style></defs><g id="Layer_2" data-name="Layer 2"><g id="Layer_1-2" data-name="Layer 1"><path class="cls-1" d="M410.33,112.59l-5.55-63.72A43.11,43.11,0,0,0,365.59,9.69L301.87,4.13a1085.76,1085.76,0,0,0-189.28,0L48.86,9.69A43.09,43.09,0,0,0,9.69,48.87L4.12,112.59a1089.7,1089.7,0,0,0,0,189.28L9.69,365.6a43.08,43.08,0,0,0,39.17,39.17l63.73,5.57a1089.7,1089.7,0,0,0,189.28,0l63.72-5.57a43.1,43.1,0,0,0,39.19-39.17l5.55-63.73A1085.76,1085.76,0,0,0,410.33,112.59ZM354,182.71a207.17,207.17,0,0,1-17.33,55.46c-14.79,31.27-36.08,57.53-62.05,80.15a7.06,7.06,0,0,1-6.14,1.81c-3.89-.7-7.15-2.38-9-6.21s-3.61-7.32-5.53-10.91Q238,273.15,222,243.32c-2.82-5.3-5.59-10.63-8.46-15.9a6.68,6.68,0,0,0-12.53,0c-2.86,5.27-5.62,10.6-8.46,15.9q-16,29.85-32,59.69-2.88,5.39-5.51,10.91c-1.83,3.83-5.1,5.51-9,6.21a7.05,7.05,0,0,1-6.14-1.81c-26-22.62-47.25-48.88-62-80.15a207.53,207.53,0,0,1-17.33-55.46,289.43,289.43,0,0,1-3.41-40.12c.6-8.83,1.14-17.66,1.82-26.49.46-6.16,5.1-11.07,11.23-11.25,6.9-.21,13.82,0,20.71.48,3.39.22,5.63,2.64,7.11,5.7,2.09,4.28,1.78,8.64.86,13.13-2.18,10.59-2,21.36-1.58,32.07a161.28,161.28,0,0,0,5.3,36.41,171.65,171.65,0,0,0,25.6,54.18c.39.57.81,1.12,1.25,1.66,4.52,5.74,10.55,5.7,14.76-.28a101.37,101.37,0,0,0,6.16-10.06c6.79-12.49,13.48-25,20.2-37.56.62-1.16,1.06-2.42,1.72-3.54,2.49-4.2,1.35-7.79-1.7-11.11a60,60,0,0,1-12.7-20.47c-6.3-17.87-3.29-34.46,7.91-49.54a52.33,52.33,0,0,1,26-19.18,51.57,51.57,0,0,1,5.72-1.53A49.8,49.8,0,0,1,203,94.4c.22,0,.43,0,.64-.06l1.18-.07h.08c.39,0,.78,0,1.17,0h2.38c.39,0,.78,0,1.17,0h.08l1.18.07c.21,0,.42,0,.63.06a50,50,0,0,1,5.48.81,51.57,51.57,0,0,1,5.72,1.53,52.39,52.39,0,0,1,26,19.18c11.2,15.08,14.21,31.67,7.91,49.54a59.84,59.84,0,0,1-12.7,20.47c-3,3.32-4.18,6.91-1.7,11.11.66,1.12,1.11,2.38,1.72,3.54,6.72,12.52,13.4,25.07,20.19,37.56a105.38,105.38,0,0,0,6.17,10.06c4.21,6,10.24,6,14.76.28.43-.54.86-1.09,1.25-1.66a171.19,171.19,0,0,0,25.59-54.18,160.17,160.17,0,0,0,5.31-36.41c.37-10.71.6-21.48-1.57-32.07-.93-4.49-1.24-8.85.84-13.13,1.5-3.06,3.74-5.48,7.12-5.7,6.89-.45,13.81-.69,20.71-.48,6.13.18,10.76,5.09,11.24,11.25.67,8.83,1.21,17.66,1.81,26.49A287.9,287.9,0,0,1,354,182.71Z"/></g></g></svg>